# xmcd
#
# Track frame offsets: 
#        150
#        9080
#        22445
#        35685
#        45763
#        56275
#        67945
#        76500
#        87142
#        100299
#        113704
#        125155
#        134446
#        146591
#        159840
#
# Disc length: 2303 seconds
#
# Revision: 0
# Processed by: cddbd v1.5.2PL0 Copyright (c) Steve Scherf et al.
# Submitted via: ExactAudioCopy v0.99pb5
#
DISCID=b408fd0f
DTITLE=the Honky Tonk Pounders - Devil Bop
DYEAR=2010
DGENRE=Rock-a-Billy
TTITLE0=Devil Bop
TTITLE1=Sea of the Tears
TTITLE2=Bad Hair Boogie
TTITLE3=Lovestick Fool
TTITLE4=Freighttrain Running
TTITLE5=Hot Rod
TTITLE6=I know that you love me
TTITLE7=Boom Boom
TTITLE8=Let's Get Rockin'
TTITLE9=You're the one
TTITLE10=Right Time to Rock
TTITLE11=Rockabilla Pearl
TTITLE12=Bad Luck
TTITLE13=6th Street Rumble
TTITLE14=Sweet Innocent
EXTD=
EXTT0=
EXTT1=
EXTT2=
EXTT3=
EXTT4=
EXTT5=
EXTT6=
EXTT7=
EXTT8=
EXTT9=
EXTT10=
EXTT11=
EXTT12=
EXTT13=
EXTT14=
PLAYORDER=
